<svg width="20" height="19" viewBox="0 0 20 19" fill="none" xmlns="http://www.w3.org/2000/svg">
<g clip-path="url(#clip0_1_90)">
<path d="M4.60173 11.1832L3.95773 13.5832L1.60273 13.6332C0.890521 12.3067 0.512135 10.8267 0.500287 9.32109C0.488439 7.81553 0.843486 6.32974 1.53473 4.99219L3.63473 5.37619L4.55273 7.46019C4.13981 8.66828 4.15819 9.98212 4.60473 11.1782L4.60173 11.1832Z" fill="#FBBB00"/>
<path d="M18.846 7.52344C19.16 9.17354 19.0187 10.878 18.4373 12.4539C17.8559 14.0298 16.8564 15.4176 15.5461 16.4684L12.906 16.3334L12.532 14.0004C13.6223 13.3614 14.46 12.3673 14.905 11.1844H9.95703V7.52344H18.846Z" fill="#518EF8"/>
<path d="M15.5495 16.4696C14.4905 17.3194 13.2575 17.9258 11.938 18.2458C10.6185 18.5659 9.24471 18.5918 7.91407 18.3216C6.58344 18.0515 5.32852 17.4919 4.23829 16.6826C3.14806 15.8733 2.24921 14.8341 1.60547 13.6386L4.60547 11.1836C4.88652 11.9346 5.32838 12.615 5.90009 13.1773C6.4718 13.7395 7.15954 14.1699 7.91512 14.4384C8.67069 14.7069 9.47584 14.8069 10.2741 14.7314C11.0724 14.656 11.8446 14.4069 12.5365 14.0016L15.5495 16.4696Z" fill="#28B446"/>
<path d="M15.6641 2.12909L12.6641 4.58309C11.9619 4.14512 11.1701 3.87123 10.3474 3.78183C9.52471 3.69242 8.69247 3.78981 7.91266 4.06672C7.13286 4.34364 6.42558 4.79295 5.84355 5.38118C5.26151 5.96941 4.81971 6.68139 4.55106 7.46409L1.53906 4.99909C2.17488 3.77148 3.07762 2.7019 4.18096 1.8689C5.28431 1.03589 6.56025 0.460622 7.91505 0.185345C9.26986 -0.089932 10.6691 -0.0582266 12.0101 0.278133C13.351 0.614492 14.5996 1.24696 15.6641 2.12909Z" fill="#F14336"/>
</g>
<defs>
<clipPath id="clip0_1_90">
<rect width="19" height="19" fill="white" transform="translate(0.5)"/>
</clipPath>
</defs>
</svg>
